<?xml version="1.0" standalone="no"?>
<!DOCTYPE svg PUBLIC "-//W3C//DTD SVG 20010904//EN"
 "http://www.w3.org/TR/2001/REC-SVG-20010904/DTD/svg10.dtd">
<svg version="1.0" xmlns="http://www.w3.org/2000/svg"
 width="1200.000000pt" height="1200.000000pt" viewBox="0 0 1200.000000 1200.000000"
 preserveAspectRatio="xMidYMid meet">

<g transform="translate(0.000000,1200.000000) scale(0.100000,-0.100000)"
fill="#000000" stroke="none">
<path d="M5155 11060 l-880 -880 -1227 0 -1228 0 0 -1228 0 -1227 -880 -880
-880 -880 880 -880 880 -880 0 -1228 0 -1227 1228 0 1227 0 875 -875 c481
-481 879 -875 885 -875 6 0 404 394 885 875 l875 875 1227 0 1228 0 0 1228 0
1227 875 875 c481 481 875 879 875 885 0 6 -394 404 -875 885 l-875 875 0
1227 0 1228 -1227 0 -1228 0 -880 880 -880 880 -880 -880z m2335 -872 c0 -5
-658 -8 -1462 -8 l-1463 0 735 735 735 735 727 -727 c401 -401 728 -731 728
-735z m-3420 -211 c0 -1 -461 -463 -1025 -1027 l-1025 -1025 0 1028 0 1027
1025 0 c564 0 1025 -1 1025 -3z m4807 -1169 l1173 -1173 0 -1670 0 -1670
-1172 -1172 -1173 -1173 -1670 0 -1670 0 -1172 1172 -1173 1173 0 1670 0 1670
1172 1172 1173 1173 1670 0 1670 0 1172 -1172z m1171 150 c1 -560 -1 -1018 -5
-1018 -5 0 -467 459 -1028 1020 l-1020 1020 1025 -2 1025 -3 3 -1017z m-8233
-4447 c-3 -3 -334 323 -735 724 l-730 730 732 733 733 732 3 -1457 c1 -801 0
-1459 -3 -1462z m9895 1454 c0 -6 -328 -339 -730 -740 l-730 -730 0 1470 0
1470 730 -730 c402 -401 730 -734 730 -740z m-8652 -4013 c-557 -1 -1019 0
-1025 3 -10 3 -13 218 -13 1027 l0 1023 1025 -1025 1025 -1025 -1012 -3z
m6987 10 c-3 -9 -218 -12 -1027 -12 l-1023 0 1025 1025 1025 1025 3 -1012 c1
-557 0 -1019 -3 -1026z m-3270 -942 c-401 -401 -734 -730 -740 -730 -6 0 -339
329 -740 730 l-730 730 1470 0 1470 0 -730 -730z"/>
</g>
</svg>
